<svg width="300" height="183" viewBox="0 0 300 183" fill="none" xmlns="http://www.w3.org/2000/svg">
<g clip-path="url(#clip0_304_7749)">
<path fill-rule="evenodd" clip-rule="evenodd" d="M149.198 31.4431C179.017 31.1133 203.457 55.0192 203.787 84.8382C204.117 114.657 180.211 139.098 150.392 139.428C120.573 139.757 96.1324 115.851 95.8027 86.0324C95.4729 56.2134 119.379 31.7728 149.198 31.4431Z" fill="#BDE6FA"/>
<path fill-rule="evenodd" clip-rule="evenodd" d="M152.783 76.9469L168.417 76.9281L168.886 140.69L153.252 140.708L152.783 76.9469Z" fill="#076F9F"/>
<path fill-rule="evenodd" clip-rule="evenodd" d="M172.482 72.4392L187.99 72.5621L188.413 123.746L172.995 134.378L172.482 72.4392Z" fill="#076F9F"/>
<path fill-rule="evenodd" clip-rule="evenodd" d="M131.821 58.2509L147.906 58.1755L148.287 139.818L132.203 139.893L131.821 58.2509Z" fill="#076F9F"/>
<path fill-rule="evenodd" clip-rule="evenodd" d="M111.349 69.8447L126.982 69.7716L127.283 134.2L111.61 125.814L111.349 69.8447Z" fill="#076F9F"/>
<path fill-rule="evenodd" clip-rule="evenodd" d="M148.548 20.8155C183.959 20.2333 213.138 48.4672 213.72 83.8785C214.302 119.29 186.067 148.467 150.657 149.05C115.246 149.632 86.0676 121.398 85.4854 85.9869C84.9032 50.5756 113.138 21.3977 148.548 20.8155ZM148.721 31.3229C178.329 30.8364 202.725 54.4433 203.212 84.0512C203.699 113.659 180.091 138.055 150.484 138.542C120.877 139.029 96.4797 115.422 95.9932 85.814C95.5063 56.2061 119.114 31.8098 148.721 31.3229Z" fill="url(#paint0_linear_304_7749)"/>
<path d="M117.719 65.4981C118.663 65.4826 119.417 64.768 119.403 63.902C119.389 63.036 118.612 62.3466 117.667 62.3621C116.723 62.3777 115.969 63.0923 115.983 63.9583C115.997 64.8242 116.774 65.5137 117.719 65.4981Z" fill="#076F9F"/>
<path d="M141.523 52.7734C142.467 52.7579 143.221 52.0433 143.207 51.1773C143.193 50.3113 142.415 49.6219 141.471 49.6374C140.526 49.6529 139.772 50.3675 139.787 51.2335C139.801 52.0995 140.578 52.7889 141.523 52.7734Z" fill="#076F9F" stroke="#076F9F" stroke-width="0.00762" stroke-miterlimit="22.9256"/>
<path d="M161.742 69.6515C162.686 69.6359 163.44 68.9213 163.426 68.0553C163.412 67.1894 162.635 66.4999 161.69 66.5155C160.746 66.531 159.992 67.2456 160.006 68.1116C160.02 68.9776 160.797 69.667 161.742 69.6515Z" fill="#076F9F"/>
<path d="M180.685 70.5532C181.63 70.5377 182.384 69.8231 182.37 68.9571C182.355 68.0911 181.578 67.4017 180.634 67.4172C179.689 67.4327 178.935 68.1473 178.949 69.0133C178.963 69.8793 179.741 70.5687 180.685 70.5532Z" fill="#076F9F"/>
<path d="M117.93 63.4848L141.747 50.7704L161.716 68.0847L181.108 69.0067" stroke="#076F9F" stroke-width="0.5" stroke-miterlimit="22.9256"/>
<path fill-rule="evenodd" clip-rule="evenodd" d="M1.43701 101.735C98.9884 172.385 188.339 194.208 270.667 96.6321L280.104 69.8584L247.694 87.2671C180.514 178.232 97.1195 161.488 1.43701 101.735Z" fill="url(#paint1_linear_304_7749)"/>
<path fill-rule="evenodd" clip-rule="evenodd" d="M16.5278 112.47C102.874 178.713 192.536 192.357 288.539 105.439L299.946 78.5538L266.55 95.595C187.605 166.267 103.715 163.757 16.5278 112.47Z" fill="url(#paint2_linear_304_7749)"/>
<path fill-rule="evenodd" clip-rule="evenodd" d="M282.871 67.255C199.569 -7.97676 111.115 -22.5626 13.2718 74.584L1.43701 101.734L34.8579 84.5028C117.605 -2.53312 199.787 4.26699 282.871 67.255Z" fill="url(#paint3_linear_304_7749)"/>
<path fill-rule="evenodd" clip-rule="evenodd" d="M285.766 64.9597C201.868 -7.66489 112.492 -28.2799 12.638 50.54L0.0952148 76.359L34.2904 62.0528C116.37 -1.96489 200.413 7.13112 285.766 64.9597Z" fill="url(#paint4_linear_304_7749)"/>
<path fill-rule="evenodd" clip-rule="evenodd" d="M196.681 111.363L224.172 126.954C225.751 126.296 227.603 126.324 229.236 127.193L282.136 155.329C285.065 156.888 286.231 160.583 284.724 163.541C283.217 166.499 279.587 167.644 276.657 166.085L223.758 137.949C222.184 137.112 221.12 135.659 220.705 134.035L192.798 118.209L196.681 111.363Z" fill="#076F9F"/>
<path d="M14.4717 176.015C14.4717 177.269 14.2607 178.364 13.8389 179.302C13.417 180.233 12.8193 180.945 12.0459 181.438C11.2725 181.93 10.3701 182.176 9.33887 182.176C8.33105 182.176 7.4375 181.93 6.6582 181.438C5.87891 180.939 5.27246 180.233 4.83887 179.319C4.41113 178.399 4.19141 177.336 4.17969 176.129V175.206C4.17969 173.976 4.39355 172.889 4.82129 171.945C5.24902 171.002 5.85254 170.281 6.63184 169.783C7.41699 169.279 8.31348 169.027 9.32129 169.027C10.3467 169.027 11.249 169.276 12.0283 169.774C12.8135 170.267 13.417 170.984 13.8389 171.928C14.2607 172.865 14.4717 173.958 14.4717 175.206V176.015ZM12.793 175.188C12.793 173.671 12.4883 172.508 11.8789 171.699C11.2695 170.885 10.417 170.478 9.32129 170.478C8.25488 170.478 7.41406 170.885 6.79883 171.699C6.18945 172.508 5.87598 173.633 5.8584 175.074V176.015C5.8584 177.485 6.16602 178.643 6.78125 179.486C7.40234 180.324 8.25488 180.743 9.33887 180.743C10.4287 180.743 11.2725 180.348 11.8701 179.557C12.4678 178.76 12.7754 177.62 12.793 176.138V175.188ZM24.7988 177.351C24.7988 178.804 24.4648 179.973 23.7969 180.857C23.1289 181.736 22.2324 182.176 21.1074 182.176C19.9062 182.176 18.9775 181.751 18.3213 180.901L18.2422 182H16.748V168.5H18.374V173.536C19.0303 172.722 19.9355 172.314 21.0898 172.314C22.2441 172.314 23.1494 172.751 23.8057 173.624C24.4678 174.497 24.7988 175.692 24.7988 177.21V177.351ZM23.1729 177.166C23.1729 176.059 22.959 175.203 22.5312 174.6C22.1035 173.996 21.4883 173.694 20.6855 173.694C19.6133 173.694 18.8428 174.192 18.374 175.188V179.302C18.8721 180.298 19.6484 180.796 20.7031 180.796C21.4824 180.796 22.0889 180.494 22.5225 179.891C22.9561 179.287 23.1729 178.379 23.1729 177.166ZM32.3926 179.478C32.3926 179.038 32.2256 178.698 31.8916 178.458C31.5635 178.212 30.9863 178.001 30.1602 177.825C29.3398 177.649 28.6865 177.438 28.2002 177.192C27.7197 176.946 27.3623 176.653 27.1279 176.313C26.8994 175.974 26.7852 175.569 26.7852 175.101C26.7852 174.321 27.1133 173.662 27.7695 173.123C28.4316 172.584 29.2754 172.314 30.3008 172.314C31.3789 172.314 32.252 172.593 32.9199 173.149C33.5938 173.706 33.9307 174.418 33.9307 175.285H32.2959C32.2959 174.84 32.1055 174.456 31.7246 174.134C31.3496 173.812 30.875 173.65 30.3008 173.65C29.709 173.65 29.2461 173.779 28.9121 174.037C28.5781 174.295 28.4111 174.632 28.4111 175.048C28.4111 175.44 28.5664 175.736 28.877 175.936C29.1875 176.135 29.7471 176.325 30.5557 176.507C31.3701 176.688 32.0293 176.905 32.5332 177.157C33.0371 177.409 33.4092 177.714 33.6494 178.071C33.8955 178.423 34.0186 178.854 34.0186 179.363C34.0186 180.213 33.6787 180.896 32.999 181.411C32.3193 181.921 31.4375 182.176 30.3535 182.176C29.5918 182.176 28.918 182.041 28.332 181.771C27.7461 181.502 27.2861 181.127 26.9521 180.646C26.624 180.16 26.46 179.636 26.46 179.073H28.0859C28.1152 179.618 28.332 180.052 28.7363 180.374C29.1465 180.69 29.6855 180.849 30.3535 180.849C30.9688 180.849 31.4609 180.726 31.8301 180.479C32.2051 180.228 32.3926 179.894 32.3926 179.478ZM40.083 182.176C38.7939 182.176 37.7451 181.754 36.9365 180.91C36.1279 180.061 35.7236 178.927 35.7236 177.509V177.21C35.7236 176.267 35.9023 175.426 36.2598 174.688C36.623 173.943 37.127 173.363 37.7715 172.947C38.4219 172.525 39.125 172.314 39.8809 172.314C41.1172 172.314 42.0781 172.722 42.7637 173.536C43.4492 174.351 43.792 175.517 43.792 177.034V177.711H37.3496C37.373 178.648 37.6455 179.407 38.167 179.987C38.6943 180.562 39.3623 180.849 40.1709 180.849C40.7451 180.849 41.2314 180.731 41.6299 180.497C42.0283 180.263 42.377 179.952 42.6758 179.565L43.6689 180.339C42.8721 181.563 41.6768 182.176 40.083 182.176ZM39.8809 173.65C39.2246 173.65 38.6738 173.891 38.2285 174.371C37.7832 174.846 37.5078 175.514 37.4023 176.375H42.166V176.252C42.1191 175.426 41.8965 174.787 41.498 174.336C41.0996 173.879 40.5605 173.65 39.8809 173.65ZM50.2783 173.949C50.0322 173.908 49.7656 173.888 49.4785 173.888C48.4121 173.888 47.6885 174.342 47.3076 175.25V182H45.6816V172.49H47.2637L47.29 173.589C47.8232 172.739 48.5791 172.314 49.5576 172.314C49.874 172.314 50.1143 172.355 50.2783 172.438V173.949ZM55.0771 179.794L57.4326 172.49H59.0938L55.6836 182H54.4443L50.999 172.49H52.6602L55.0771 179.794ZM66.3887 182C66.2949 181.812 66.2188 181.479 66.1602 180.998C65.4043 181.783 64.502 182.176 63.4531 182.176C62.5156 182.176 61.7451 181.912 61.1416 181.385C60.5439 180.852 60.2451 180.178 60.2451 179.363C60.2451 178.373 60.6201 177.605 61.3701 177.061C62.126 176.51 63.1865 176.234 64.5518 176.234H66.1338V175.487C66.1338 174.919 65.9639 174.468 65.624 174.134C65.2842 173.794 64.7832 173.624 64.1211 173.624C63.541 173.624 63.0547 173.771 62.6621 174.063C62.2695 174.356 62.0732 174.711 62.0732 175.127H60.4385C60.4385 174.652 60.6055 174.195 60.9395 173.756C61.2793 173.311 61.7363 172.959 62.3105 172.701C62.8906 172.443 63.5264 172.314 64.2178 172.314C65.3135 172.314 66.1719 172.59 66.793 173.141C67.4141 173.686 67.7363 174.438 67.7598 175.399V179.776C67.7598 180.649 67.8711 181.344 68.0938 181.859V182H66.3887ZM63.6904 180.761C64.2002 180.761 64.6836 180.629 65.1406 180.365C65.5977 180.102 65.9287 179.759 66.1338 179.337V177.386H64.8594C62.8672 177.386 61.8711 177.969 61.8711 179.135C61.8711 179.645 62.041 180.043 62.3809 180.33C62.7207 180.617 63.1572 180.761 63.6904 180.761ZM72.5146 170.188V172.49H74.29V173.747H72.5146V179.645C72.5146 180.025 72.5938 180.312 72.752 180.506C72.9102 180.693 73.1797 180.787 73.5605 180.787C73.748 180.787 74.0059 180.752 74.334 180.682V182C73.9062 182.117 73.4902 182.176 73.0859 182.176C72.3594 182.176 71.8115 181.956 71.4424 181.517C71.0732 181.077 70.8887 180.453 70.8887 179.645V173.747H69.1572V172.49H70.8887V170.188H72.5146ZM75.5908 177.157C75.5908 176.226 75.7725 175.388 76.1357 174.644C76.5049 173.899 77.0146 173.325 77.665 172.921C78.3213 172.517 79.0684 172.314 79.9062 172.314C81.2012 172.314 82.2471 172.763 83.0439 173.659C83.8467 174.556 84.248 175.748 84.248 177.236V177.351C84.248 178.276 84.0693 179.108 83.7119 179.847C83.3604 180.579 82.8535 181.15 82.1914 181.561C81.5352 181.971 80.7793 182.176 79.9238 182.176C78.6348 182.176 77.5889 181.728 76.7861 180.831C75.9893 179.935 75.5908 178.748 75.5908 177.271V177.157ZM77.2256 177.351C77.2256 178.405 77.4688 179.252 77.9551 179.891C78.4473 180.529 79.1035 180.849 79.9238 180.849C80.75 180.849 81.4062 180.526 81.8926 179.882C82.3789 179.231 82.6221 178.323 82.6221 177.157C82.6221 176.114 82.373 175.271 81.875 174.626C81.3828 173.976 80.7266 173.65 79.9062 173.65C79.1035 173.65 78.4561 173.97 77.9639 174.608C77.4717 175.247 77.2256 176.161 77.2256 177.351ZM80.6445 168.5H82.6133L80.2578 171.084H78.9482L80.6445 168.5ZM90.8838 173.949C90.6377 173.908 90.3711 173.888 90.084 173.888C89.0176 173.888 88.2939 174.342 87.9131 175.25V182H86.2871V172.49H87.8691L87.8955 173.589C88.4287 172.739 89.1846 172.314 90.1631 172.314C90.4795 172.314 90.7197 172.355 90.8838 172.438V173.949ZM94.1533 182H92.5273V172.49H94.1533V182ZM92.3955 169.968C92.3955 169.704 92.4746 169.481 92.6328 169.3C92.7969 169.118 93.0371 169.027 93.3535 169.027C93.6699 169.027 93.9102 169.118 94.0742 169.3C94.2383 169.481 94.3203 169.704 94.3203 169.968C94.3203 170.231 94.2383 170.451 94.0742 170.627C93.9102 170.803 93.6699 170.891 93.3535 170.891C93.0371 170.891 92.7969 170.803 92.6328 170.627C92.4746 170.451 92.3955 170.231 92.3955 169.968ZM96.333 177.157C96.333 176.226 96.5146 175.388 96.8779 174.644C97.2471 173.899 97.7568 173.325 98.4072 172.921C99.0635 172.517 99.8105 172.314 100.648 172.314C101.943 172.314 102.989 172.763 103.786 173.659C104.589 174.556 104.99 175.748 104.99 177.236V177.351C104.99 178.276 104.812 179.108 104.454 179.847C104.103 180.579 103.596 181.15 102.934 181.561C102.277 181.971 101.521 182.176 100.666 182.176C99.377 182.176 98.3311 181.728 97.5283 180.831C96.7314 179.935 96.333 178.748 96.333 177.271V177.157ZM97.9678 177.351C97.9678 178.405 98.2109 179.252 98.6973 179.891C99.1895 180.529 99.8457 180.849 100.666 180.849C101.492 180.849 102.148 180.526 102.635 179.882C103.121 179.231 103.364 178.323 103.364 177.157C103.364 176.114 103.115 175.271 102.617 174.626C102.125 173.976 101.469 173.65 100.648 173.65C99.8457 173.65 99.1982 173.97 98.7061 174.608C98.2139 175.247 97.9678 176.161 97.9678 177.351ZM111.099 177.166C111.099 175.707 111.444 174.535 112.136 173.65C112.827 172.76 113.732 172.314 114.852 172.314C115.965 172.314 116.847 172.695 117.497 173.457V168.5H119.123V182H117.629L117.55 180.98C116.899 181.777 115.994 182.176 114.834 182.176C113.732 182.176 112.833 181.725 112.136 180.822C111.444 179.92 111.099 178.742 111.099 177.289V177.166ZM112.725 177.351C112.725 178.429 112.947 179.272 113.393 179.882C113.838 180.491 114.453 180.796 115.238 180.796C116.27 180.796 117.022 180.333 117.497 179.407V175.039C117.011 174.143 116.264 173.694 115.256 173.694C114.459 173.694 113.838 174.002 113.393 174.617C112.947 175.232 112.725 176.144 112.725 177.351ZM125.601 182.176C124.312 182.176 123.263 181.754 122.454 180.91C121.646 180.061 121.241 178.927 121.241 177.509V177.21C121.241 176.267 121.42 175.426 121.777 174.688C122.141 173.943 122.645 173.363 123.289 172.947C123.939 172.525 124.643 172.314 125.398 172.314C126.635 172.314 127.596 172.722 128.281 173.536C128.967 174.351 129.31 175.517 129.31 177.034V177.711H122.867C122.891 178.648 123.163 179.407 123.685 179.987C124.212 180.562 124.88 180.849 125.688 180.849C126.263 180.849 126.749 180.731 127.147 180.497C127.546 180.263 127.895 179.952 128.193 179.565L129.187 180.339C128.39 181.563 127.194 182.176 125.601 182.176ZM125.398 173.65C124.742 173.65 124.191 173.891 123.746 174.371C123.301 174.846 123.025 175.514 122.92 176.375H127.684V176.252C127.637 175.426 127.414 174.787 127.016 174.336C126.617 173.879 126.078 173.65 125.398 173.65ZM135.919 182V169.203H139.531C140.645 169.203 141.629 169.449 142.484 169.941C143.34 170.434 143.999 171.134 144.462 172.042C144.931 172.95 145.168 173.993 145.174 175.171V175.988C145.174 177.195 144.939 178.253 144.471 179.161C144.008 180.069 143.343 180.767 142.476 181.253C141.614 181.739 140.609 181.988 139.461 182H135.919ZM137.606 170.592V180.62H139.382C140.683 180.62 141.693 180.216 142.414 179.407C143.141 178.599 143.504 177.447 143.504 175.953V175.206C143.504 173.753 143.161 172.625 142.476 171.822C141.796 171.014 140.829 170.604 139.575 170.592H137.606ZM153.348 182C153.254 181.812 153.178 181.479 153.119 180.998C152.363 181.783 151.461 182.176 150.412 182.176C149.475 182.176 148.704 181.912 148.101 181.385C147.503 180.852 147.204 180.178 147.204 179.363C147.204 178.373 147.579 177.605 148.329 177.061C149.085 176.51 150.146 176.234 151.511 176.234H153.093V175.487C153.093 174.919 152.923 174.468 152.583 174.134C152.243 173.794 151.742 173.624 151.08 173.624C150.5 173.624 150.014 173.771 149.621 174.063C149.229 174.356 149.032 174.711 149.032 175.127H147.397C147.397 174.652 147.564 174.195 147.898 173.756C148.238 173.311 148.695 172.959 149.27 172.701C149.85 172.443 150.485 172.314 151.177 172.314C152.272 172.314 153.131 172.59 153.752 173.141C154.373 173.686 154.695 174.438 154.719 175.399V179.776C154.719 180.649 154.83 181.344 155.053 181.859V182H153.348ZM150.649 180.761C151.159 180.761 151.643 180.629 152.1 180.365C152.557 180.102 152.888 179.759 153.093 179.337V177.386H151.818C149.826 177.386 148.83 177.969 148.83 179.135C148.83 179.645 149 180.043 149.34 180.33C149.68 180.617 150.116 180.761 150.649 180.761ZM156.872 177.166C156.872 175.707 157.218 174.535 157.909 173.65C158.601 172.76 159.506 172.314 160.625 172.314C161.738 172.314 162.62 172.695 163.271 173.457V168.5H164.896V182H163.402L163.323 180.98C162.673 181.777 161.768 182.176 160.607 182.176C159.506 182.176 158.606 181.725 157.909 180.822C157.218 179.92 156.872 178.742 156.872 177.289V177.166ZM158.498 177.351C158.498 178.429 158.721 179.272 159.166 179.882C159.611 180.491 160.227 180.796 161.012 180.796C162.043 180.796 162.796 180.333 163.271 179.407V175.039C162.784 174.143 162.037 173.694 161.029 173.694C160.232 173.694 159.611 174.002 159.166 174.617C158.721 175.232 158.498 176.144 158.498 177.351ZM166.997 177.157C166.997 176.226 167.179 175.388 167.542 174.644C167.911 173.899 168.421 173.325 169.071 172.921C169.728 172.517 170.475 172.314 171.312 172.314C172.607 172.314 173.653 172.763 174.45 173.659C175.253 174.556 175.654 175.748 175.654 177.236V177.351C175.654 178.276 175.476 179.108 175.118 179.847C174.767 180.579 174.26 181.15 173.598 181.561C172.941 181.971 172.186 182.176 171.33 182.176C170.041 182.176 168.995 181.728 168.192 180.831C167.396 179.935 166.997 178.748 166.997 177.271V177.157ZM168.632 177.351C168.632 178.405 168.875 179.252 169.361 179.891C169.854 180.529 170.51 180.849 171.33 180.849C172.156 180.849 172.812 180.526 173.299 179.882C173.785 179.231 174.028 178.323 174.028 177.157C174.028 176.114 173.779 175.271 173.281 174.626C172.789 173.976 172.133 173.65 171.312 173.65C170.51 173.65 169.862 173.97 169.37 174.608C168.878 175.247 168.632 176.161 168.632 177.351ZM183.23 179.478C183.23 179.038 183.063 178.698 182.729 178.458C182.401 178.212 181.824 178.001 180.998 177.825C180.178 177.649 179.524 177.438 179.038 177.192C178.558 176.946 178.2 176.653 177.966 176.313C177.737 175.974 177.623 175.569 177.623 175.101C177.623 174.321 177.951 173.662 178.607 173.123C179.27 172.584 180.113 172.314 181.139 172.314C182.217 172.314 183.09 172.593 183.758 173.149C184.432 173.706 184.769 174.418 184.769 175.285H183.134C183.134 174.84 182.943 174.456 182.562 174.134C182.188 173.812 181.713 173.65 181.139 173.65C180.547 173.65 180.084 173.779 179.75 174.037C179.416 174.295 179.249 174.632 179.249 175.048C179.249 175.44 179.404 175.736 179.715 175.936C180.025 176.135 180.585 176.325 181.394 176.507C182.208 176.688 182.867 176.905 183.371 177.157C183.875 177.409 184.247 177.714 184.487 178.071C184.733 178.423 184.856 178.854 184.856 179.363C184.856 180.213 184.517 180.896 183.837 181.411C183.157 181.921 182.275 182.176 181.191 182.176C180.43 182.176 179.756 182.041 179.17 181.771C178.584 181.502 178.124 181.127 177.79 180.646C177.462 180.16 177.298 179.636 177.298 179.073H178.924C178.953 179.618 179.17 180.052 179.574 180.374C179.984 180.69 180.523 180.849 181.191 180.849C181.807 180.849 182.299 180.726 182.668 180.479C183.043 180.228 183.23 179.894 183.23 179.478ZM193.505 182H191.817V169.203H193.505V182ZM197.882 172.49L197.935 173.686C198.661 172.771 199.61 172.314 200.782 172.314C202.792 172.314 203.806 173.448 203.823 175.716V182H202.197V175.707C202.191 175.021 202.033 174.515 201.723 174.187C201.418 173.858 200.94 173.694 200.29 173.694C199.763 173.694 199.3 173.835 198.901 174.116C198.503 174.397 198.192 174.767 197.97 175.224V182H196.344V172.49H197.882ZM211.812 179.478C211.812 179.038 211.646 178.698 211.312 178.458C210.983 178.212 210.406 178.001 209.58 177.825C208.76 177.649 208.106 177.438 207.62 177.192C207.14 176.946 206.782 176.653 206.548 176.313C206.319 175.974 206.205 175.569 206.205 175.101C206.205 174.321 206.533 173.662 207.189 173.123C207.852 172.584 208.695 172.314 209.721 172.314C210.799 172.314 211.672 172.593 212.34 173.149C213.014 173.706 213.351 174.418 213.351 175.285H211.716C211.716 174.84 211.525 174.456 211.145 174.134C210.77 173.812 210.295 173.65 209.721 173.65C209.129 173.65 208.666 173.779 208.332 174.037C207.998 174.295 207.831 174.632 207.831 175.048C207.831 175.44 207.986 175.736 208.297 175.936C208.607 176.135 209.167 176.325 209.976 176.507C210.79 176.688 211.449 176.905 211.953 177.157C212.457 177.409 212.829 177.714 213.069 178.071C213.315 178.423 213.438 178.854 213.438 179.363C213.438 180.213 213.099 180.896 212.419 181.411C211.739 181.921 210.857 182.176 209.773 182.176C209.012 182.176 208.338 182.041 207.752 181.771C207.166 181.502 206.706 181.127 206.372 180.646C206.044 180.16 205.88 179.636 205.88 179.073H207.506C207.535 179.618 207.752 180.052 208.156 180.374C208.566 180.69 209.105 180.849 209.773 180.849C210.389 180.849 210.881 180.726 211.25 180.479C211.625 180.228 211.812 179.894 211.812 179.478ZM217.763 170.188V172.49H219.538V173.747H217.763V179.645C217.763 180.025 217.842 180.312 218 180.506C218.158 180.693 218.428 180.787 218.809 180.787C218.996 180.787 219.254 180.752 219.582 180.682V182C219.154 182.117 218.738 182.176 218.334 182.176C217.607 182.176 217.06 181.956 216.69 181.517C216.321 181.077 216.137 180.453 216.137 179.645V173.747H214.405V172.49H216.137V170.188H217.763ZM223.212 182H221.586V172.49H223.212V182ZM221.454 169.968C221.454 169.704 221.533 169.481 221.691 169.3C221.855 169.118 222.096 169.027 222.412 169.027C222.729 169.027 222.969 169.118 223.133 169.3C223.297 169.481 223.379 169.704 223.379 169.968C223.379 170.231 223.297 170.451 223.133 170.627C222.969 170.803 222.729 170.891 222.412 170.891C222.096 170.891 221.855 170.803 221.691 170.627C221.533 170.451 221.454 170.231 221.454 169.968ZM228.028 170.188V172.49H229.804V173.747H228.028V179.645C228.028 180.025 228.107 180.312 228.266 180.506C228.424 180.693 228.693 180.787 229.074 180.787C229.262 180.787 229.52 180.752 229.848 180.682V182C229.42 182.117 229.004 182.176 228.6 182.176C227.873 182.176 227.325 181.956 226.956 181.517C226.587 181.077 226.402 180.453 226.402 179.645V173.747H224.671V172.49H226.402V170.188H228.028ZM237.582 181.06C236.949 181.804 236.021 182.176 234.796 182.176C233.782 182.176 233.009 181.883 232.476 181.297C231.948 180.705 231.682 179.832 231.676 178.678V172.49H233.302V178.634C233.302 180.075 233.888 180.796 235.06 180.796C236.302 180.796 237.128 180.333 237.538 179.407V172.49H239.164V182H237.617L237.582 181.06ZM245.457 180.849C246.037 180.849 246.544 180.673 246.978 180.321C247.411 179.97 247.651 179.53 247.698 179.003H249.236C249.207 179.548 249.02 180.066 248.674 180.559C248.328 181.051 247.865 181.443 247.285 181.736C246.711 182.029 246.102 182.176 245.457 182.176C244.162 182.176 243.131 181.745 242.363 180.884C241.602 180.017 241.221 178.833 241.221 177.333V177.061C241.221 176.135 241.391 175.312 241.73 174.591C242.07 173.87 242.557 173.311 243.189 172.912C243.828 172.514 244.581 172.314 245.448 172.314C246.515 172.314 247.399 172.634 248.103 173.272C248.812 173.911 249.189 174.74 249.236 175.76H247.698C247.651 175.145 247.417 174.641 246.995 174.248C246.579 173.85 246.063 173.65 245.448 173.65C244.622 173.65 243.98 173.949 243.523 174.547C243.072 175.139 242.847 175.997 242.847 177.122V177.43C242.847 178.525 243.072 179.369 243.523 179.961C243.975 180.553 244.619 180.849 245.457 180.849ZM252.831 182H251.205V172.49H252.831V182ZM251.073 169.968C251.073 169.704 251.152 169.481 251.311 169.3C251.475 169.118 251.715 169.027 252.031 169.027C252.348 169.027 252.588 169.118 252.752 169.3C252.916 169.481 252.998 169.704 252.998 169.968C252.998 170.231 252.916 170.451 252.752 170.627C252.588 170.803 252.348 170.891 252.031 170.891C251.715 170.891 251.475 170.803 251.311 170.627C251.152 170.451 251.073 170.231 251.073 169.968ZM255.011 177.157C255.011 176.226 255.192 175.388 255.556 174.644C255.925 173.899 256.435 173.325 257.085 172.921C257.741 172.517 258.488 172.314 259.326 172.314C260.621 172.314 261.667 172.763 262.464 173.659C263.267 174.556 263.668 175.748 263.668 177.236V177.351C263.668 178.276 263.489 179.108 263.132 179.847C262.78 180.579 262.273 181.15 261.611 181.561C260.955 181.971 260.199 182.176 259.344 182.176C258.055 182.176 257.009 181.728 256.206 180.831C255.409 179.935 255.011 178.748 255.011 177.271V177.157ZM256.646 177.351C256.646 178.405 256.889 179.252 257.375 179.891C257.867 180.529 258.523 180.849 259.344 180.849C260.17 180.849 260.826 180.526 261.312 179.882C261.799 179.231 262.042 178.323 262.042 177.157C262.042 176.114 261.793 175.271 261.295 174.626C260.803 173.976 260.146 173.65 259.326 173.65C258.523 173.65 257.876 173.97 257.384 174.608C256.892 175.247 256.646 176.161 256.646 177.351ZM267.245 172.49L267.298 173.686C268.024 172.771 268.974 172.314 270.146 172.314C272.155 172.314 273.169 173.448 273.187 175.716V182H271.561V175.707C271.555 175.021 271.396 174.515 271.086 174.187C270.781 173.858 270.304 173.694 269.653 173.694C269.126 173.694 268.663 173.835 268.265 174.116C267.866 174.397 267.556 174.767 267.333 175.224V182H265.707V172.49H267.245ZM281.51 182C281.416 181.812 281.34 181.479 281.281 180.998C280.525 181.783 279.623 182.176 278.574 182.176C277.637 182.176 276.866 181.912 276.263 181.385C275.665 180.852 275.366 180.178 275.366 179.363C275.366 178.373 275.741 177.605 276.491 177.061C277.247 176.51 278.308 176.234 279.673 176.234H281.255V175.487C281.255 174.919 281.085 174.468 280.745 174.134C280.405 173.794 279.904 173.624 279.242 173.624C278.662 173.624 278.176 173.771 277.783 174.063C277.391 174.356 277.194 174.711 277.194 175.127H275.56C275.56 174.652 275.727 174.195 276.061 173.756C276.4 173.311 276.857 172.959 277.432 172.701C278.012 172.443 278.647 172.314 279.339 172.314C280.435 172.314 281.293 172.59 281.914 173.141C282.535 173.686 282.857 174.438 282.881 175.399V179.776C282.881 180.649 282.992 181.344 283.215 181.859V182H281.51ZM278.812 180.761C279.321 180.761 279.805 180.629 280.262 180.365C280.719 180.102 281.05 179.759 281.255 179.337V177.386H279.98C277.988 177.386 276.992 177.969 276.992 179.135C276.992 179.645 277.162 180.043 277.502 180.33C277.842 180.617 278.278 180.761 278.812 180.761ZM287.196 182H285.57V172.49H287.196V182ZM285.438 169.968C285.438 169.704 285.518 169.481 285.676 169.3C285.84 169.118 286.08 169.027 286.396 169.027C286.713 169.027 286.953 169.118 287.117 169.3C287.281 169.481 287.363 169.704 287.363 169.968C287.363 170.231 287.281 170.451 287.117 170.627C286.953 170.803 286.713 170.891 286.396 170.891C286.08 170.891 285.84 170.803 285.676 170.627C285.518 170.451 285.438 170.231 285.438 169.968ZM295.344 179.478C295.344 179.038 295.177 178.698 294.843 178.458C294.515 178.212 293.938 178.001 293.111 177.825C292.291 177.649 291.638 177.438 291.151 177.192C290.671 176.946 290.313 176.653 290.079 176.313C289.851 175.974 289.736 175.569 289.736 175.101C289.736 174.321 290.064 173.662 290.721 173.123C291.383 172.584 292.227 172.314 293.252 172.314C294.33 172.314 295.203 172.593 295.871 173.149C296.545 173.706 296.882 174.418 296.882 175.285H295.247C295.247 174.84 295.057 174.456 294.676 174.134C294.301 173.812 293.826 173.65 293.252 173.65C292.66 173.65 292.197 173.779 291.863 174.037C291.529 174.295 291.362 174.632 291.362 175.048C291.362 175.44 291.518 175.736 291.828 175.936C292.139 176.135 292.698 176.325 293.507 176.507C294.321 176.688 294.98 176.905 295.484 177.157C295.988 177.409 296.36 177.714 296.601 178.071C296.847 178.423 296.97 178.854 296.97 179.363C296.97 180.213 296.63 180.896 295.95 181.411C295.271 181.921 294.389 182.176 293.305 182.176C292.543 182.176 291.869 182.041 291.283 181.771C290.697 181.502 290.237 181.127 289.903 180.646C289.575 180.16 289.411 179.636 289.411 179.073H291.037C291.066 179.618 291.283 180.052 291.688 180.374C292.098 180.69 292.637 180.849 293.305 180.849C293.92 180.849 294.412 180.726 294.781 180.479C295.156 180.228 295.344 179.894 295.344 179.478Z" fill="#274A65"/>
</g>
<defs>
<linearGradient id="paint0_linear_304_7749" x1="98.2205" y1="58.6174" x2="203.427" y2="112.076" gradientUnits="userSpaceOnUse">
<stop stop-color="#076F9F"/>
<stop offset="0.129412" stop-color="#1772A1"/>
<stop offset="0.278431" stop-color="#60A7DB"/>
<stop offset="0.501961" stop-color="#B2CDE2"/>
<stop offset="0.701961" stop-color="#6EABDD"/>
<stop offset="0.839216" stop-color="#0A70A0"/>
<stop offset="1" stop-color="#076F9F"/>
</linearGradient>
<linearGradient id="paint1_linear_304_7749" x1="284.747" y1="93.9677" x2="10.1276" y2="146.858" gradientUnits="userSpaceOnUse">
<stop stop-color="#619AB4"/>
<stop offset="1" stop-color="#90D6EC"/>
</linearGradient>
<linearGradient id="paint2_linear_304_7749" x1="303.699" y1="112.254" x2="20.0228" y2="143.85" gradientUnits="userSpaceOnUse">
<stop stop-color="#1390BF"/>
<stop offset="1" stop-color="#FEFEFE"/>
</linearGradient>
<linearGradient id="paint3_linear_304_7749" x1="-2.19855" y1="61.1671" x2="280.058" y2="35.8717" gradientUnits="userSpaceOnUse">
<stop stop-color="#619AB4"/>
<stop offset="1" stop-color="#80CEE3"/>
</linearGradient>
<linearGradient id="paint4_linear_304_7749" x1="-1.89972" y1="48.0992" x2="283.155" y2="27.9753" gradientUnits="userSpaceOnUse">
<stop stop-color="#0D8EBE"/>
<stop offset="0.278431" stop-color="#85C6DE"/>
<stop offset="1" stop-color="#FEFEFE"/>
</linearGradient>
<clipPath id="clip0_304_7749">
<rect width="300" height="182.489" fill="white"/>
</clipPath>
</defs>
</svg>
