<?xml version="1.0" standalone="no"?>
<!DOCTYPE svg PUBLIC "-//W3C//DTD SVG 20010904//EN"
 "http://www.w3.org/TR/2001/REC-SVG-20010904/DTD/svg10.dtd">
<svg version="1.0" xmlns="http://www.w3.org/2000/svg"
 width="300.000000pt" height="300.000000pt" viewBox="0 0 300.000000 300.000000"
 preserveAspectRatio="xMidYMid meet">
<metadata>
Created by potrace 1.14, written by Peter Selinger 2001-2017
</metadata>
<g transform="translate(0.000000,300.000000) scale(0.100000,-0.100000)"
fill="#000000" stroke="none">
<path d="M1225 2319 c-332 -33 -665 -173 -1018 -428 -78 -56 -79 -57 -143
-185 -35 -71 -62 -131 -60 -133 2 -3 41 12 87 31 45 20 85 36 88 36 3 0 -9
-15 -25 -32 -29 -32 -142 -273 -132 -283 2 -3 76 32 164 76 150 77 165 87 264
184 213 207 437 360 650 443 111 44 132 47 70 11 -30 -17 -89 -66 -131 -109
-268 -270 -246 -698 47 -942 70 -58 196 -116 300 -138 l89 -18 -84 -1 c-108
-1 -290 16 -400 39 -55 11 -88 14 -92 8 -8 -13 -2 -79 8 -89 14 -13 198 -68
304 -90 142 -31 444 -33 594 -5 137 25 298 78 433 142 l113 53 216 -115 c119
-63 225 -114 236 -112 11 2 29 15 40 29 37 50 14 72 -187 178 -152 80 -177 96
-162 105 52 31 241 172 311 233 79 68 81 71 137 198 31 72 57 134 57 138 1 5
-60 -24 -134 -63 -74 -39 -135 -67 -135 -61 0 6 16 54 35 107 19 54 33 99 31
101 -2 2 -75 -34 -162 -81 -153 -82 -161 -88 -216 -158 -31 -40 -102 -118
-157 -172 l-100 -100 -51 24 c-38 18 -49 28 -44 39 4 9 21 54 38 101 27 76 30
98 30 200 0 189 -53 319 -184 451 -106 107 -270 186 -391 190 l-34 1 40 10
c36 8 161 2 320 -17 30 -3 32 -2 11 3 -31 7 -50 39 -34 59 6 7 5 14 -2 18 -6
3 -8 10 -5 15 3 5 1 19 -4 33 -8 21 -22 27 -113 45 -198 41 -332 49 -513 31z
m426 -329 c335 -103 480 -508 286 -798 l-42 -62 -6 157 c-4 87 -7 195 -8 241
l-1 82 -80 0 -80 0 -2 -307 c-2 -234 -6 -307 -15 -311 -10 -3 -13 59 -13 287
l0 291 -86 0 -87 0 7 -310 c7 -302 7 -310 -12 -310 -18 0 -19 12 -25 197 -4
108 -7 288 -7 400 l0 203 -87 0 -86 0 7 -384 c7 -375 7 -384 -12 -379 -17 4
-19 19 -25 206 -4 111 -7 257 -7 325 l0 122 -80 0 -80 0 0 -262 0 -263 -25 30
c-46 55 -104 186 -115 259 -27 173 38 350 174 473 59 54 153 106 222 122 73
17 217 13 285 -9z m407 -918 c23 -15 22 -15 -29 -50 -52 -35 -245 -132 -264
-132 -5 0 19 17 55 38 35 20 93 67 129 103 36 36 71 64 76 61 6 -3 20 -12 33
-20z"/>
<path d="M1365 1811 c-41 -28 -164 -93 -199 -105 -19 -6 -19 -8 -2 -24 16 -16
18 -16 34 5 22 27 182 113 211 113 24 0 178 -124 186 -151 4 -13 18 -15 86
-11 55 3 88 1 105 -8 18 -10 27 -11 35 -3 21 21 -1 32 -54 26 -87 -9 -152 11
-216 65 -31 26 -73 64 -93 85 -21 20 -41 37 -45 36 -5 0 -26 -13 -48 -28z"/>
<path d="M1938 2103 c7 -3 16 -2 19 1 4 3 -2 6 -13 5 -11 0 -14 -3 -6 -6z"/>
<path d="M2018 2083 c7 -3 16 -2 19 1 4 3 -2 6 -13 5 -11 0 -14 -3 -6 -6z"/>
<path d="M2205 2023 c97 -40 349 -175 445 -239 134 -88 142 -91 52 -17 -41 33
-110 80 -155 105 -87 48 -315 151 -357 161 -14 4 -7 -1 15 -10z"/>
<path d="M105 1253 c21 -23 143 -95 255 -152 122 -63 339 -155 346 -148 3 2
-17 12 -43 22 -27 10 -113 49 -192 86 -126 60 -201 100 -341 182 -19 11 -30
15 -25 10z"/>
</g>
</svg>
